<?xml version="1.0" encoding="utf-8"?>
<!-- Generator: Adobe Illustrator 16.0.3, SVG Export Plug-In . SVG Version: 6.00 Build 0)  -->
<!DOCTYPE svg PUBLIC "-//W3C//DTD SVG 1.1//EN" "http://www.w3.org/Graphics/SVG/1.1/DTD/svg11.dtd">
<svg version="1.1" id="Capa_1" xmlns="http://www.w3.org/2000/svg" xmlns:xlink="http://www.w3.org/1999/xlink" x="0px" y="0px"
	 width="147.914px" height="56px" viewBox="0 0 147.914 56" enable-background="new 0 0 147.914 56" xml:space="preserve">
<g>
	<g>
		<path fill="#FFC418" d="M124.688,54.088c-1.001,0.325-2.56,0.729-4.193,0.729c-1.79,0-3.252-0.46-4.33-1.421
			c-1.037-0.925-1.634-2.349-1.634-4.003c0-2.423,1.001-4.521,2.654-5.924c1.461-1.213,3.463-1.886,5.713-1.886
			c1.693,0,2.944,0.325,3.444,0.576l-0.828,2.349c-0.595-0.271-1.596-0.541-2.75-0.541c-1.289,0-2.442,0.367-3.308,1.04
			c-1.118,0.885-1.867,2.424-1.867,4.193c0,2.175,1.289,3.271,3.329,3.271c0.634,0,1.097-0.096,1.404-0.231l0.518-2.73h-2
			l0.424-2.212h4.712L124.688,54.088z"/>
		<path fill="#FFC418" d="M128.342,41.968c0.826-0.212,2.135-0.347,3.385-0.347c1.156,0,2.502,0.193,3.443,0.865
			c0.868,0.596,1.405,1.501,1.405,2.752c0,1.635-0.749,2.865-1.771,3.653c-1.059,0.827-2.557,1.195-4.136,1.195
			c-0.461,0-0.846-0.039-1.135-0.078l-0.885,4.674h-2.713L128.342,41.968z M129.958,47.756c0.288,0.06,0.596,0.099,1.058,0.099
			c1.673,0,2.771-1.077,2.771-2.366c0-1.251-0.903-1.654-1.981-1.654c-0.52,0-0.886,0.037-1.116,0.095L129.958,47.756z"/>
		<path fill="#FFC418" d="M136.267,51.682c0.771,0.46,1.865,0.828,3.058,0.828c1.079,0,2.06-0.501,2.06-1.52
			c0-0.73-0.558-1.213-1.751-1.829c-1.385-0.748-2.692-1.749-2.692-3.441c0-2.616,2.288-4.214,5.117-4.214
			c1.576,0,2.5,0.347,3.058,0.653l-0.864,2.31c-0.425-0.231-1.349-0.598-2.425-0.579c-1.289,0-1.962,0.655-1.962,1.366
			c0,0.751,0.787,1.212,1.884,1.83c1.579,0.825,2.577,1.886,2.577,3.422c0,2.888-2.384,4.367-5.271,4.367
			c-1.808,0-3.097-0.462-3.713-0.923L136.267,51.682z"/>
	</g>
	<g>
		<path fill-rule="evenodd" clip-rule="evenodd" fill="#FFC418" d="M96.152,13.749l-0.524,0.523l-3.8,3.802l-0.543,0.545
			l-0.477-0.497c-5.208-5.418-12.179-8.441-19.624-8.517c-7.44-0.071-14.464,2.816-19.781,8.139l-0.884,1.063l-0.663-0.663
			l-3.813-3.809l-0.456-0.456l1.034-1.095c14.606-14.613,34.719-14.44,49.051,0.467L96.152,13.749z"/>
		<path fill-rule="evenodd" clip-rule="evenodd" fill="#FFC418" d="M89.959,19.945l-0.367,0.369l-3.923,3.925l-0.379,0.38
			l-0.38-0.41c-3.686-3.832-8.611-5.965-13.875-6.021c-5.259-0.05-10.217,1.992-13.978,5.745l-0.664,0.743l-0.396-0.394l-3.94-3.938
			L51.712,20l0.766-0.825C62.803,8.843,79.445,9,89.579,19.535L89.959,19.945z"/>
		<path fill-rule="evenodd" clip-rule="evenodd" fill="#FFC418" d="M84.102,25.81l-0.375,0.377l-3.936,3.938l-0.358,0.359
			l-0.394-0.4c-2.151-2.231-5.017-3.476-8.079-3.504c-3.069-0.029-5.959,1.159-8.146,3.347l-0.543,0.622l-0.385-0.383l-3.92-3.916
			l-0.383-0.385l0.647-0.7c3.44-3.441,7.982-5.311,12.792-5.263c4.812,0.042,9.316,2,12.686,5.507L84.102,25.81z"/>
	</g>
	<g>
		<path fill="#2B3F54" d="M7.144,47.957c1.673,1.002,4.056,1.798,6.648,1.798c2.34,0,4.472-1.088,4.472-3.303
			c0-1.591-1.212-2.635-3.803-3.972c-3.01-1.63-5.853-3.804-5.853-7.481c0-5.686,4.973-9.154,11.119-9.154
			c3.427,0,5.434,0.75,6.646,1.421l-1.88,5.016c-0.92-0.501-2.927-1.296-5.269-1.254c-2.8,0-4.262,1.421-4.262,2.968
			c0,1.629,1.714,2.634,4.097,3.972c3.426,1.796,5.601,4.096,5.601,7.44c0,6.27-5.184,9.486-11.455,9.486
			c-3.928,0-6.729-1.002-8.066-2.004L7.144,47.957z"/>
		<path fill="#2B3F54" d="M24.868,54.479l5.602-29.68h6.019L34.23,36.629l0.085,0.042c1.672-1.882,3.805-3.093,6.521-3.093
			c3.177,0,5.141,2.005,5.141,5.517c0,0.96-0.167,2.507-0.377,3.68l-2.215,11.704h-6.02l2.092-11.205
			c0.167-0.793,0.291-1.672,0.291-2.547c0-1.339-0.583-2.301-2.089-2.301c-2.09,0-4.221,2.551-5.017,6.688l-1.755,9.365H24.868z"/>
		<path fill="#2B3F54" d="M63.366,53.307c-2.382,1.212-5.35,1.587-7.607,1.587c-5.853,0-8.863-3.299-8.863-8.609
			c0-6.229,4.515-12.706,11.914-12.706c4.137,0,7.106,2.298,7.106,6.102c0,5.225-5.057,7.108-13.251,6.896
			c0,0.588,0.208,1.506,0.627,2.091c0.795,1.045,2.173,1.59,3.929,1.59c2.216,0,4.097-0.502,5.726-1.298L63.366,53.307z
			 M58.058,37.967c-2.801,0-4.39,2.299-4.807,4.223c4.683,0.04,7.023-0.628,7.023-2.468C60.274,38.677,59.438,37.967,58.058,37.967z
			"/>
		<path fill="#2B3F54" d="M65.081,54.479l2.299-12.165c0.585-3.095,0.836-6.521,1.046-8.278h5.224
			c-0.125,1.382-0.251,2.76-0.376,4.184h0.125c1.422-2.719,3.72-4.641,6.521-4.641c0.377,0,0.752,0,1.13,0.042l-1.171,5.851
			c-0.293-0.04-0.628-0.04-0.962-0.04c-3.845,0-5.643,3.426-6.396,7.438l-1.42,7.609H65.081z"/>
		<path fill="#2B3F54" d="M100.612,34.035l-2.633,13.796c-0.502,2.592-0.796,4.807-1.087,6.647h-5.31l0.376-3.347h-0.083
			c-2.09,2.675-4.598,3.804-7.064,3.804c-3.261,0-5.226-1.837-5.226-5.725c0-1.129,0.125-2.342,0.419-3.762l2.132-11.414h6.02
			l-2.049,10.953c-0.168,0.92-0.292,1.924-0.292,2.675c0,1.338,0.5,2.385,2.047,2.385c2.048,0,4.138-2.468,4.933-6.565l1.797-9.447
			H100.612z"/>
		<path fill="#2B3F54" d="M111.271,28.31l-1.088,5.726h4.348l-0.876,4.559h-4.349l-1.378,6.938
			c-0.169,0.835-0.334,1.882-0.334,2.592c0,1.003,0.417,1.715,1.712,1.715c0.545,0,1.13,0,1.672-0.084l-0.71,4.724
			c-0.752,0.292-2.256,0.457-3.552,0.457c-3.596,0-5.31-1.837-5.31-4.389c0-1.127,0.126-2.256,0.417-3.802l1.587-8.151h-2.589
			l0.836-4.559h2.632l0.837-4.303L111.271,28.31z"/>
	</g>
</g>
</svg>
