<?xml version="1.0" encoding="utf-8"?>
<!-- Generator: Adobe Illustrator 16.0.3, SVG Export Plug-In . SVG Version: 6.00 Build 0)  -->
<!DOCTYPE svg PUBLIC "-//W3C//DTD SVG 1.1//EN" "http://www.w3.org/Graphics/SVG/1.1/DTD/svg11.dtd">
<svg version="1.1" id="Capa_1" xmlns="http://www.w3.org/2000/svg" xmlns:xlink="http://www.w3.org/1999/xlink" x="0px" y="0px"
	 width="256px" height="256px" viewBox="0 0 256 256" enable-background="new 0 0 256 256" xml:space="preserve">
<g>
	<g>
		<path fill="#FFC418" d="M215.2,161.025c-1.73,0.541-4.378,1.234-7.192,1.234c-3.062,0-5.573-0.79-7.434-2.415
			c-1.762-1.589-2.798-4.032-2.798-6.87c0-4.168,1.738-7.765,4.551-10.157c2.506-2.092,5.938-3.235,9.804-3.235
			c2.891,0,5.034,0.557,5.915,0.992l-1.444,4.012c-1.008-0.461-2.724-0.925-4.712-0.925c-2.212,0-4.168,0.632-5.663,1.781
			c-1.912,1.514-3.206,4.162-3.206,7.201c0,3.724,2.221,5.612,5.709,5.612c1.099,0,1.883-0.164,2.41-0.405l0.895-4.681h-3.424
			l0.723-3.792h8.081L215.2,161.025z"/>
		<path fill="#FFC418" d="M221.461,140.215c1.416-0.347,3.673-0.58,5.808-0.58c1.972,0,4.29,0.34,5.916,1.498
			c1.458,1.008,2.407,2.557,2.407,4.701c0,2.8-1.28,4.913-3.042,6.253c-1.804,1.429-4.386,2.061-7.085,2.061
			c-0.798,0-1.446-0.06-1.956-0.119l-1.507,8.005h-4.649L221.461,140.215z M224.23,150.16c0.495,0.091,1.022,0.158,1.807,0.158
			c2.871,0,4.755-1.844,4.755-4.055c0-2.139-1.552-2.829-3.396-2.829c-0.887,0-1.518,0.068-1.909,0.158L224.23,150.16z"/>
		<path fill="#FFC418" d="M235.051,156.888c1.316,0.79,3.202,1.422,5.244,1.422c1.849,0,3.52-0.866,3.52-2.619
			c0-1.249-0.954-2.07-3.001-3.122c-2.379-1.287-4.604-2.994-4.604-5.914c0-4.484,3.91-7.223,8.772-7.223
			c2.693,0,4.281,0.594,5.244,1.129l-1.483,3.957c-0.736-0.397-2.316-1.023-4.151-1.001c-2.229,0-3.373,1.136-3.373,2.348
			c0,1.287,1.349,2.084,3.223,3.138c2.707,1.414,4.429,3.235,4.429,5.884c0,4.95-4.092,7.479-9.05,7.479
			c-3.084,0-5.296-0.804-6.357-1.58L235.051,156.888z"/>
	</g>
	<g>
		<path fill="#FFC418" d="M166.281,91.85l-0.903,0.903l-6.5,6.515l-0.934,0.941l-0.819-0.854
			c-8.938-9.285-20.88-14.473-33.648-14.593c-12.755-0.132-24.798,4.822-33.914,13.953l-1.516,1.825L86.911,99.4l-6.539-6.526
			l-0.786-0.779l1.779-1.885c25.04-25.055,59.515-24.757,84.087,0.801L166.281,91.85z"/>
		<path fill="#FFC418" d="M155.656,102.474l-0.631,0.632l-6.712,6.734l-0.662,0.647l-0.647-0.708
			c-6.312-6.572-14.758-10.225-23.787-10.319c-9.018-0.082-17.52,3.417-23.963,9.849l-1.14,1.271l-0.678-0.674l-6.749-6.756
			l-0.602-0.576l1.309-1.41c17.708-17.711,46.235-17.452,63.615,0.617L155.656,102.474z"/>
		<path fill="#FFC418" d="M145.621,112.529l-0.647,0.648l-6.742,6.748l-0.609,0.626l-0.685-0.689
			c-3.683-3.837-8.596-5.955-13.845-6.008c-5.263-0.054-10.217,1.994-13.967,5.74l-0.933,1.062l-0.663-0.654l-6.718-6.72
			l-0.654-0.647l1.11-1.199c5.895-5.91,13.682-9.108,21.925-9.022c8.253,0.068,15.972,3.419,21.75,9.427L145.621,112.529z"/>
	</g>
	<g>
		<path fill="#2B3F54" d="M13.681,150.507c2.866,1.723,6.959,3.076,11.395,3.076c4.006,0,7.667-1.871,7.667-5.664
			c0-2.731-2.081-4.516-6.519-6.802c-5.162-2.8-10.037-6.523-10.037-12.832c0-9.756,8.528-15.695,19.062-15.695
			c5.876,0,9.314,1.287,11.395,2.427l-3.22,8.593c-1.58-0.851-5.019-2.213-9.033-2.145c-4.8,0-7.302,2.446-7.302,5.087
			c0,2.789,2.927,4.521,7.02,6.816c5.869,3.083,9.597,7.02,9.597,12.768c0,10.735-8.89,16.243-19.63,16.243
			c-6.741,0-11.542-1.716-13.829-3.43L13.681,150.507z"/>
		<path fill="#2B3F54" d="M44.062,161.688l9.604-50.884h10.319l-3.867,20.277l0.143,0.079c2.874-3.22,6.526-5.309,11.18-5.309
			c5.447,0,8.814,3.442,8.814,9.457c0,1.641-0.285,4.304-0.639,6.32l-3.8,20.06H65.494l3.581-19.216c0.286-1.354,0.5-2.86,0.5-4.363
			c0-2.288-1.001-3.937-3.581-3.937c-3.574,0-7.227,4.372-8.596,11.475l-3.014,16.056H44.062V161.688z"/>
		<path fill="#2B3F54" d="M110.065,159.672c-4.085,2.09-9.167,2.724-13.046,2.724c-10.03,0-15.191-5.644-15.191-14.756
			c0-10.691,7.742-21.789,20.424-21.789c7.086,0,12.188,3.943,12.188,10.467c0,8.952-8.667,12.188-22.714,11.826
			c0,1.008,0.357,2.574,1.072,3.582c1.366,1.784,3.728,2.725,6.734,2.725c3.808,0,7.027-0.844,9.815-2.213L110.065,159.672z
			 M100.966,133.382c-4.808,0-7.535,3.943-8.243,7.23c8.029,0.062,12.034-1.075,12.034-4.234
			C104.766,134.594,103.332,133.382,100.966,133.382z"/>
		<path fill="#2B3F54" d="M113.008,161.688l3.939-20.856c1.008-5.297,1.441-11.185,1.787-14.194h8.968
			c-0.218,2.37-0.432,4.729-0.647,7.167h0.215c2.434-4.649,6.38-7.953,11.18-7.953c0.641,0,1.28,0,1.927,0.075l-2.009,10.03
			c-0.49-0.076-1.076-0.076-1.641-0.076c-6.592,0-9.672,5.87-10.969,12.761l-2.434,13.047H113.008L113.008,161.688z"/>
		<path fill="#2B3F54" d="M173.926,126.637l-4.522,23.652c-0.85,4.438-1.354,8.238-1.857,11.398h-9.113l0.647-5.748h-0.144
			c-3.58,4.596-7.876,6.516-12.098,6.516c-5.598,0-8.962-3.138-8.962-9.796c0-1.941,0.204-4.019,0.716-6.455l3.642-19.567h10.338
			l-3.514,18.777c-0.286,1.586-0.488,3.295-0.488,4.589c0,2.295,0.842,4.093,3.498,4.093c3.513,0,7.095-4.236,8.464-11.256
			l3.07-16.203H173.926z"/>
		<path fill="#2B3F54" d="M192.192,116.822l-1.866,9.808h7.45l-1.483,7.806h-7.448l-2.384,11.888
			c-0.272,1.444-0.572,3.243-0.572,4.454c0,1.723,0.714,2.934,2.956,2.934c0.909,0,1.935,0,2.852-0.133l-1.217,8.093
			c-1.295,0.507-3.877,0.776-6.088,0.776c-6.163,0-9.097-3.138-9.097-7.516c0-1.926,0.202-3.868,0.715-6.524l2.723-13.972h-4.446
			l1.444-7.813h4.516l1.429-7.374L192.192,116.822z"/>
	</g>
</g>
</svg>
